<?xml version="1.0" encoding="UTF-8"?>
<svg width="128px" height="128px" viewBox="0 0 128 128" version="1.1" xmlns="http://www.w3.org/2000/svg" xmlns:xlink="http://www.w3.org/1999/xlink">
    <title>Artboard</title>
    <defs>
        <linearGradient x1="64.9438679%" y1="65.2628613%" x2="100%" y2="30.658616%" id="linearGradient-1">
            <stop stop-color="#FFB200" stop-opacity="0.05" offset="0%"></stop>
            <stop stop-color="#FFB200" stop-opacity="0.4" offset="100%"></stop>
        </linearGradient>
        <circle id="path-2" cx="29" cy="29" r="29"></circle>
        <filter x="-25.9%" y="-25.9%" width="151.7%" height="151.7%" filterUnits="objectBoundingBox" id="filter-3">
            <feOffset dx="0" dy="0" in="SourceAlpha" result="shadowOffsetOuter1"></feOffset>
            <feGaussianBlur stdDeviation="5" in="shadowOffsetOuter1" result="shadowBlurOuter1"></feGaussianBlur>
            <feColorMatrix values="0 0 0 0 0   0 0 0 0 0   0 0 0 0 0  0 0 0 0.2 0" type="matrix" in="shadowBlurOuter1"></feColorMatrix>
        </filter>
        <circle id="path-4" cx="29" cy="29" r="29"></circle>
        <filter x="-25.9%" y="-25.9%" width="151.7%" height="151.7%" filterUnits="objectBoundingBox" id="filter-5">
            <feOffset dx="0" dy="0" in="SourceAlpha" result="shadowOffsetOuter1"></feOffset>
            <feGaussianBlur stdDeviation="5" in="shadowOffsetOuter1" result="shadowBlurOuter1"></feGaussianBlur>
            <feColorMatrix values="0 0 0 0 0   0 0 0 0 0   0 0 0 0 0  0 0 0 0.2 0" type="matrix" in="shadowBlurOuter1"></feColorMatrix>
        </filter>
    </defs>
    <g id="Artboard" stroke="none" stroke-width="1" fill="none" fill-rule="evenodd">
        <g id="Group-2" transform="translate(-302.000000, -16.000000)">
            <g id="Group">
                <rect id="Rectangle" fill="#0A0F1D" x="0" y="0" width="470.999581" height="172"></rect>
                <path d="M470.999581,21.0912093 L470.999581,171.999908 L228.363433,171.999908 C248.599071,145.346562 274.768637,127.716284 306.872133,119.109074 C355.530945,106.063248 347.869381,79.8639017 392.101523,52.7444446 C421.074284,34.9807658 447.373637,24.4296874 470.999581,21.0912093 Z" id="Path" fill="url(#linearGradient-1)"></path>
                <g id="lines" opacity="0.12" transform="translate(252.291219, 30.624390)" fill="#FFFFFF">
                    <rect id="Rectangle" x="146.791926" y="18.0390244" width="1" height="122.917073"></rect>
                    <rect id="Rectangle" x="110.093944" y="46.9853659" width="1" height="93.9707317"></rect>
                    <rect id="Rectangle" x="73.3959629" y="81.3853659" width="1" height="59.5707317"></rect>
                    <rect id="Rectangle" x="21.8288576" y="101.490022" width="196.879504" height="1"></rect>
                    <rect id="Rectangle" x="116.280645" y="40.4538498" width="102.427716" height="1"></rect>
                </g>
                <path d="M471,20.7273271 L471,21.5751613 L470.898023,21.5899273 C447.703553,24.9744298 421.920324,35.2981307 393.551956,52.5659474 L392.673941,53.1021067 C382.995096,59.0313186 375.282326,65.2071958 368.374473,72.2190019 C365.856553,74.7748122 363.481632,77.3975092 360.905424,80.4278325 L359.978732,81.5252691 L358.793212,82.9538036 L352.977676,90.0428989 L352.390361,90.7507556 L351.793986,91.4638362 L351.197311,92.1710092 L350.599446,92.8727585 C345.359299,98.9918139 341.177972,103.02125 335.873086,106.809184 C328.468755,112.096218 319.505584,116.187 307.759273,119.379903 L307.261291,119.514281 C275.322882,128.069946 249.274771,145.562113 229.104892,171.999907 L228.050693,171.999907 L228.221411,171.774282 C248.533386,145.03132 274.81162,127.338258 307.043914,118.703867 C318.942043,115.516594 327.962022,111.426859 335.384992,106.126515 C341.303572,101.900375 345.81488,97.3621702 352.037456,89.8622688 L358.051438,82.5339184 L359.25842,81.0782296 L359.483456,80.8096776 L360.266324,79.8837311 C362.854702,76.83912 365.242793,74.201892 367.776197,71.6303639 C374.731118,64.5707817 382.497225,58.3521957 392.235166,52.3867825 C421.130749,34.6854932 447.384437,24.1306351 471,20.7273271 Z" id="Path" fill="#FFB200" fill-rule="nonzero"></path>
            </g>
            <g id="dots" transform="translate(343.568133, 49.745116)" fill="#101218" stroke="#FFB200">
                <ellipse id="Oval" stroke-width="2" cx="1.61936613" cy="48.3770866" rx="1.61936613" ry="1.61838461"></ellipse>
                <ellipse id="Oval" cx="51.1554144" cy="1.61838461" rx="1.61936613" ry="1.61838461"></ellipse>
            </g>
        </g>
        <g id="Group-2" transform="translate(12.000000, 12.000000)">
            <g id="Branding/Logo" fill="#FFB200">
                <path d="M14,0 C21.7319865,0 28,6.2680135 28,14 C28,21.7319865 21.7319865,28 14,28 C11.3285245,28 8.83181346,27.2517441 6.70801375,25.9533791 L9.546072,21 L14.6313725,21 C18.4973658,21 21.6313725,17.8659932 21.6313725,14 C21.6313725,10.1340068 18.4973658,7 14.6313725,7 L12.0784314,7 C11.2445897,7 10.5686275,7.67596224 10.5686275,8.50980392 C10.5686275,9.3436456 11.2445897,10.0196078 12.0784314,10.0196078 L14.6313725,10.0196078 C16.8296824,10.0196078 18.6117647,11.8016901 18.6117647,14 C18.6117647,16.1983099 16.8296824,17.9803922 14.6313725,17.9803922 L9.14117647,17.9803922 C8.43741014,17.9803922 7.84610828,18.4619098 7.67875875,19.113453 C7.66650611,19.1486145 7.6554542,19.1844842 7.64566231,19.2210281 L5.97099907,25.4703382 C2.3603873,22.9382987 0,18.7447983 0,14 C0,6.2680135 6.2680135,0 14,0 Z M14.6313725,12.0784314 L11.0352941,12.0784314 C9.97404107,12.0784314 9.11372549,12.938747 9.11372549,14 C9.11372549,15.061253 9.97404107,15.9215686 11.0352941,15.9215686 L14.6313725,15.9215686 C15.6926256,15.9215686 16.5529412,15.061253 16.5529412,14 C16.5529412,12.938747 15.6926256,12.0784314 14.6313725,12.0784314 Z" id="logo"></path>
            </g>
            <g id="Group-4" transform="translate(0.000000, 46.000000)">
                <g id="Oval">
                    <use fill="black" fill-opacity="1" filter="url(#filter-3)" xlink:href="#path-2"></use>
                    <use fill="#FFFFFF" fill-rule="evenodd" xlink:href="#path-2"></use>
                </g>
                <g id="Vendor/Mollie" transform="translate(14.000000, 19.375000)" fill="#000000" fill-rule="nonzero">
                    <path d="M30,8.6317455 L30,19.299265 L25.9430273,19.299265 L25.9430273,8.48883535 C25.9270312,6.05936269 23.9329102,4.06752675 21.4985156,4.04602285 C19.0105664,4.02422597 16.9750781,6.12246816 16.9750781,8.610183 L16.9750781,19.299265 L12.9181055,19.299265 L12.9181055,8.51760488 C12.9022852,6.07641347 10.9168945,4.08270253 8.48355469,4.05985097 C5.99009766,4.03641347 3.95015625,6.13869863 3.95015625,8.63215566 L3.95015625,19.299265 L0,19.299265 L0,8.48883535 C0,3.80051503 3.79863281,0.00756581397 8.48847656,0.00756581397 C11.0881641,0.00756581397 13.4144531,1.18500722 14.9730469,3.02537831 C14.9708789,3.02748769 14.9751563,3.02748769 14.9730469,3.02537831 C16.5808594,1.12272206 19.0293164,-0.0736451235 21.7314258,0.00352284522 C26.3561719,0.135768939 30,4.00571035 30,8.6317455 Z" id="Path"></path>
                </g>
                <g id="Group-3" transform="translate(46.000000, 0.000000)">
                    <g id="Oval">
                        <use fill="black" fill-opacity="1" filter="url(#filter-5)" xlink:href="#path-4"></use>
                        <use fill="#FFFFFF" fill-rule="evenodd" xlink:href="#path-4"></use>
                    </g>
                    <g id="Vendor/Mollie" transform="translate(14.433333, 13.007863)" fill="#F15A29">
                        <path d="M14.6,0.000228649116 C15.5890398,-0.00844097122 16.5645054,0.230968342 17.437037,0.69676623 L26.3407407,5.85232179 C28.0571676,6.89664744 29.1341625,8.73338292 29.2074074,10.7412107 L29.2074074,21.074544 C29.1044622,23.0641504 28.051687,24.8830814 26.3777778,25.9634329 L17.437037,31.111581 C16.6666667,31.5486181 15.637037,31.8078773 14.6074074,31.8078773 C13.5777778,31.8078773 12.5481481,31.5560255 11.7777778,31.111581 L6.60740741,28.1338033 L6.60740741,22.4893588 L6.75555556,22.5782477 C8.68148148,23.7041736 10.6296296,24.7930625 12.5555556,25.9263959 L12.9259259,26.1412107 C14.5481481,27.0523218 15.0074074,26.9338033 16.9481481,25.7634329 C18.0592593,25.0967662 19.2148148,24.4671366 20.3481481,23.8226922 C21.1663393,23.3697966 21.973962,22.8980659 22.7703704,22.4078773 C24.0740741,21.6078773 24.2518519,21.0967662 24.237037,19.2671366 L24.237037,19.237507 L24.2296296,19.2449144 L24.2296296,11.9930625 C24.162963,10.6226922 23.8,10.2004699 22.3555556,9.3708403 L22.2592593,9.31158104 C20.3037037,8.18565512 18.3407407,7.03750697 16.3851852,5.91898845 C14.6666667,4.94121067 14.2444444,5.08195141 12.162963,6.33380327 C10.5555556,7.29676623 8.97037037,8.20787734 7.33333333,9.11898845 L7.31111111,9.12639586 L7.23703704,9.1708403 L7,9.30417364 L6.98518519,9.31158104 L6.71111111,9.4671366 C6,9.88195141 5.57777778,10.2078773 5.33333333,10.6300996 C4.97777778,11.237507 4.94814815,12.311581 5.17037037,12.9856551 C5.33333333,13.4893588 5.65185185,13.8300996 6.23703704,14.2226922 C6.40940044,14.3399556 6.58739043,14.4487272 6.77037037,14.5486181 L6.98518519,14.674544 L7,14.6819514 C8.84444444,15.7634329 10.7111111,16.8004699 12.562963,17.8967662 C14.4962963,19.037507 14.8740741,18.9782477 16.9555556,17.7338033 C17.5407407,17.3856551 18.1481481,17.037507 18.7481481,16.6967662 C19.4074074,16.3189885 20.0740741,15.9560255 20.7259259,15.5782477 L20.7259259,14.8597292 C20.7422078,14.3606699 20.687336,13.861835 20.562963,13.3782477 C20.3481481,12.711581 19.8592593,12.3263959 18.837037,11.7338033 L15.1407407,9.57824771 C14.8518519,9.40787734 14.8666667,9.41528475 14.4074074,9.70417364 L13.9925926,9.9708403 C13.5259259,10.2597292 13.5777778,10.9634329 14,11.2152847 L17.2518519,13.0967662 C18.1037037,13.5856551 18.4814815,13.8967662 18.6444444,14.474544 C17.9185185,14.8819514 17.1851852,15.2893588 16.4814815,15.711581 C14.8296296,16.6967662 14.5333333,16.7412107 12.9925926,15.837507 C11.4592593,14.9338033 9.91111111,14.074544 8.38518519,13.1782477 C8.02962963,12.9708403 7.76296296,12.7930625 7.56296296,12.6152847 C7.14074074,12.2300996 7.00740741,11.9708403 7.38518519,11.5189885 C7.64444444,11.2078773 8.07407407,10.9412107 8.75555556,10.5560255 C10.0740741,9.83009956 11.3777778,9.07454401 12.6666667,8.30417364 L12.7851852,8.23750697 C14.3333333,7.31158104 14.6888889,7.23009956 16.0222222,7.98565512 L20.762963,10.7263959 C22.1925926,11.5486181 22.3333333,12.2893588 22.362963,13.4226922 L22.362963,16.3782477 L22.2592593,16.437507 L21.0962963,17.1263959 L20.7185185,17.3560255 L19.5111111,18.0597292 L18.7259259,18.5041736 C17.962963,18.9263959 17.2,19.3560255 16.4592593,19.8004699 C14.8074074,20.7856551 14.5111111,20.8300996 12.9703704,19.9263959 L5.00740741,15.2300996 L5.00740741,15.2449144 L4.97777778,15.2300996 L4.97777778,27.2004699 L2.82962963,25.9634329 C1.14089359,24.8972774 0.0832501255,23.0699353 3.55271368e-15,21.074544 L3.55271368e-15,10.7412107 C0.104144676,8.75195999 1.15662636,6.93353613 2.82962963,5.85232179 L11.7703704,0.69676623 C12.640239,0.2309812 13.613315,-0.00846684089 14.6,0.000228649116 Z M6.6,18.5338033 L6.74814815,18.6226922 L6.96296296,18.7486181 C8.81481481,19.8300996 10.6814815,20.874544 12.5407407,21.9708403 C14.4740741,23.111581 14.8518519,23.0523218 16.9333333,21.8078773 C17.5185185,21.4597292 18.1185185,21.1189885 18.7185185,20.7782477 L20.6962963,19.6597292 C21.216463,19.3681326 21.7325619,19.0693385 22.2444444,18.7634329 L22.3481481,18.7041736 L22.3481481,20.3486181 L20.8444444,21.237507 L20.7037037,21.3189885 C20.4148148,21.4967662 20.1185185,21.674544 19.8148148,21.8449144 C19.8148148,21.8449144 18.4888889,22.6004699 18.4962963,22.5856551 C17.8074074,22.9708403 17.1185185,23.3560255 16.4518519,23.7560255 C14.8,24.7486181 14.5037037,24.7930625 12.962963,23.8893588 C11.8296296,23.2226922 10.6888889,22.5708403 9.54814815,21.9189885 L8.36296296,21.2300996 C8.2,21.1338033 8.05185185,21.0449144 7.92592593,20.9560255 L6.6,20.1708403 L6.6,18.5338033 Z" id="logo"></path>
                    </g>
                </g>
            </g>
        </g>
    </g>
</svg>